<svg xmlns="http://www.w3.org/2000/svg" xmlns:xlink="http://www.w3.org/1999/xlink" width="150" zoomAndPan="magnify" viewBox="0 0 112.5 60" height="80" preserveAspectRatio="xMidYMid meet" version="1.0"><defs><g/><clipPath id="7d73fda4b0"><path d="M 17.738281 26.691406 L 36.519531 26.691406 L 36.519531 43.878906 L 17.738281 43.878906 Z M 17.738281 26.691406 " clip-rule="nonzero"/></clipPath><clipPath id="26895571d0"><path d="M 18.234375 43.847656 L 19.804688 41.777344 C 20.765625 40.527344 21.941406 39.527344 23.390625 38.914062 C 25.144531 38.167969 26.960938 37.558594 28.707031 36.792969 C 29.84375 36.296875 31.117188 35.878906 31.15625 34.226562 C 31.175781 33.332031 31.472656 32.449219 31.574219 31.550781 C 31.679688 30.621094 32.15625 30.066406 33.027344 29.777344 C 33.832031 29.511719 34.640625 29.234375 35.414062 28.894531 C 36.28125 28.515625 36.40625 27.503906 35.605469 27.023438 C 35.164062 26.761719 34.519531 26.703125 33.992188 26.761719 C 33.4375 26.820312 32.917969 27.152344 32.367188 27.332031 C 28.742188 28.523438 29.421875 28.078125 28.929688 31.285156 C 28.609375 33.351562 27.914062 34.503906 25.847656 34.957031 C 24.625 35.222656 23.519531 35.992188 22.304688 36.324219 C 20.175781 36.894531 19.082031 38.585938 17.84375 40.136719 C 17.761719 40.242188 17.75 40.4375 17.769531 40.578125 L 18.242188 43.851562 " clip-rule="nonzero"/></clipPath><clipPath id="38bac1a4e3"><path d="M 5 23.007812 L 29.714844 23.007812 L 29.714844 34.332031 L 5 34.332031 Z M 5 23.007812 " clip-rule="nonzero"/></clipPath><clipPath id="ca5ebb9ae9"><path d="M 16.242188 23.09375 C 15.789062 23.09375 15.328125 23.183594 14.867188 23.355469 C 12.902344 24.09375 11.402344 25.324219 10.558594 27.296875 C 9.757812 29.167969 9.65625 29.386719 8.015625 29.386719 C 7.800781 29.386719 7.558594 29.382812 7.289062 29.378906 C 7.269531 29.378906 7.25 29.378906 7.234375 29.378906 C 6.625 29.378906 6.140625 29.546875 5.898438 30.171875 L 5.183594 32.042969 C 5.089844 32.332031 5.039062 32.59375 5.039062 32.824219 L 5.039062 32.847656 C 5.042969 33.441406 5.359375 33.875 6.03125 34.230469 L 6.464844 33.179688 C 7.121094 31.582031 7.074219 31.265625 7.964844 31.265625 C 8.261719 31.265625 8.667969 31.300781 9.242188 31.335938 C 9.347656 31.339844 9.453125 31.34375 9.550781 31.34375 C 10.589844 31.34375 11.238281 30.980469 11.601562 29.914062 C 11.773438 29.40625 12.089844 28.949219 12.335938 28.464844 C 12.886719 27.40625 13.699219 26.625 14.777344 26.101562 C 15.296875 25.851562 15.800781 25.707031 16.308594 25.707031 C 16.773438 25.707031 17.242188 25.824219 17.730469 26.085938 C 19.101562 26.804688 20.519531 27.429688 21.941406 28.042969 C 22.242188 28.171875 22.609375 28.285156 22.9375 28.285156 C 23.046875 28.285156 23.152344 28.273438 23.246094 28.246094 C 25.074219 27.6875 26.890625 27.074219 28.683594 26.414062 C 29.527344 26.101562 29.609375 25.175781 28.925781 24.585938 C 28.597656 24.300781 28.253906 24.199219 27.898438 24.199219 C 27.585938 24.199219 27.269531 24.277344 26.949219 24.378906 C 25.847656 24.730469 24.769531 25.167969 23.644531 25.410156 C 23.398438 25.460938 23.132812 25.488281 22.859375 25.488281 C 22.441406 25.488281 22.015625 25.421875 21.652344 25.28125 C 20.378906 24.796875 19.164062 24.148438 17.949219 23.527344 C 17.378906 23.234375 16.8125 23.09375 16.238281 23.09375 Z M 16.242188 23.09375 " clip-rule="nonzero"/></clipPath><clipPath id="4177403d80"><path d="M 8.210938 18.097656 L 31 18.097656 L 31 25.328125 L 8.210938 25.328125 Z M 8.210938 18.097656 " clip-rule="nonzero"/></clipPath><clipPath id="a6c33db0df"><path d="M 22.96875 23.503906 L 24.890625 22.929688 C 26.605469 22.410156 28.335938 21.933594 30.027344 21.335938 C 30.414062 21.199219 30.96875 20.554688 30.894531 20.308594 C 30.765625 19.882812 30.257812 19.484375 29.816406 19.261719 C 29.515625 19.113281 29.035156 19.226562 28.664062 19.328125 C 27.371094 19.675781 26.078125 20.015625 24.820312 20.464844 C 23.597656 20.902344 22.480469 20.949219 21.339844 20.234375 C 20.671875 19.8125 19.878906 19.601562 19.214844 19.183594 C 17.796875 18.285156 16.367188 18.113281 14.796875 18.757812 C 14.101562 19.046875 13.328125 19.140625 12.59375 19.335938 C 10.578125 19.867188 9.121094 21.0625 8.421875 23.054688 C 8.265625 23.511719 8.269531 24.074219 8.371094 24.550781 C 8.433594 24.835938 8.808594 25.210938 9.078125 25.242188 C 9.3125 25.269531 9.71875 24.921875 9.832031 24.648438 C 10.542969 22.957031 11.828125 22.019531 13.5625 21.605469 C 14.273438 21.4375 14.964844 21.128906 15.683594 21.070312 C 16.402344 21.007812 17.199219 21.011719 17.859375 21.265625 C 19.246094 21.792969 20.558594 22.511719 21.910156 23.136719 L 22.96875 23.503906 " clip-rule="nonzero"/></clipPath><clipPath id="de95019755"><path d="M 13 31.601562 L 22.910156 31.601562 L 22.910156 48.925781 L 13 48.925781 Z M 13 31.601562 " clip-rule="nonzero"/></clipPath><clipPath id="94d7e5514b"><path d="M 20.589844 31.628906 C 20.449219 31.628906 20.3125 31.644531 20.195312 31.683594 C 18.273438 32.3125 16.679688 33.445312 15.671875 35.277344 L 14.972656 36.335938 C 14.03125 37.925781 13.023438 39.484375 13.6875 41.507812 C 13.96875 42.363281 14.011719 43.300781 14.195312 44.191406 C 14.351562 44.941406 14.300781 45.609375 13.8125 46.257812 C 13.550781 46.601562 13.460938 47.070312 13.390625 47.234375 C 13.390625 48.273438 13.75 48.828125 14.234375 48.832031 L 14.238281 48.832031 C 14.347656 48.832031 14.464844 48.800781 14.585938 48.746094 C 15.554688 48.292969 16.703125 46.050781 16.507812 44.976562 C 16.277344 43.691406 15.988281 42.410156 15.816406 41.117188 C 15.738281 40.542969 15.703125 39.835938 15.964844 39.363281 C 16.816406 37.796875 17.480469 36.042969 19.269531 35.203125 L 21.675781 34.03125 C 22.640625 33.566406 22.824219 32.640625 21.945312 32.050781 C 21.589844 31.808594 21.050781 31.628906 20.59375 31.628906 Z M 20.589844 31.628906 " clip-rule="nonzero"/></clipPath><clipPath id="9d18ea9e6c"><path d="M 9.027344 30.375 L 14.878906 30.375 L 14.878906 41.832031 L 9.027344 41.832031 Z M 9.027344 30.375 " clip-rule="nonzero"/></clipPath><clipPath id="b1346b23dc"><path d="M 14.808594 32.023438 C 14.53125 31.617188 14.304688 30.90625 13.871094 30.738281 C 13.144531 30.460938 12.992188 31.300781 12.761719 31.785156 L 11.011719 35.6875 C 10.402344 37.035156 9.699219 38.347656 9.207031 39.738281 C 9.054688 40.171875 9.296875 41.039062 9.65625 41.289062 C 10.25 41.714844 10.492188 40.96875 10.710938 40.53125 C 11.171875 39.613281 11.558594 38.652344 12.039062 37.742188 L 14.289062 33.691406 C 14.523438 33.246094 14.597656 32.71875 14.808594 32.023438 " clip-rule="nonzero"/></clipPath><clipPath id="a2c2fa9228"><path d="M 20.59375 38.558594 L 32.300781 38.558594 L 32.300781 42.789062 L 20.59375 42.789062 Z M 20.59375 38.558594 " clip-rule="nonzero"/></clipPath><clipPath id="19cd97aba0"><path d="M 20.679688 42.769531 C 21.292969 42.519531 21.679688 42.375 22.058594 42.210938 C 23.449219 41.613281 24.820312 40.949219 26.246094 40.433594 C 26.714844 40.261719 27.394531 40.296875 27.84375 40.511719 C 29.339844 41.234375 31.511719 40.460938 32.242188 38.691406 C 31.667969 38.921875 31.183594 39.0625 30.757812 39.300781 C 29.859375 39.804688 29.082031 39.703125 28.203125 39.164062 C 27.753906 38.886719 27.03125 38.820312 26.503906 38.953125 C 25.542969 39.195312 24.59375 39.574219 23.71875 40.046875 C 22.589844 40.65625 21.515625 41.386719 20.679688 42.769531 " clip-rule="nonzero"/></clipPath><clipPath id="02dc56bcb5"><path d="M 16.511719 41.015625 L 27.671875 41.015625 L 27.671875 48.652344 L 16.511719 48.652344 Z M 16.511719 41.015625 " clip-rule="nonzero"/></clipPath><clipPath id="05d38c0236"><path d="M 27.5625 41.691406 L 27.59375 41.480469 C 27.144531 41.320312 26.621094 41.101562 26.214844 41.234375 C 24.953125 41.65625 23.753906 42.203125 22.777344 43.203125 C 21.390625 44.628906 20.023438 46.097656 18.058594 46.828125 C 17.503906 47.03125 17.113281 47.664062 16.644531 48.097656 L 16.964844 48.53125 C 18.324219 47.792969 19.902344 47.285156 21 46.269531 C 22.925781 44.480469 24.78125 42.683594 27.347656 41.855469 L 27.488281 41.746094 " clip-rule="nonzero"/></clipPath><clipPath id="5c2a49be97"><path d="M 33.117188 30.785156 L 38.152344 30.785156 L 38.152344 34.195312 L 33.117188 34.195312 Z M 33.117188 30.785156 " clip-rule="nonzero"/></clipPath><clipPath id="a2473c11ec"><path d="M 36.535156 30.851562 C 36.230469 30.851562 35.914062 30.941406 35.597656 31.105469 C 35.171875 31.332031 34.761719 31.621094 34.308594 31.746094 C 33.632812 31.933594 33.226562 32.359375 33.464844 32.96875 C 33.648438 33.433594 34.207031 33.75 34.628906 34.164062 C 35.660156 33.730469 36.480469 33.378906 37.300781 33.039062 C 37.792969 32.835938 38.050781 32.476562 38.058594 32.097656 L 38.058594 32.070312 C 38.050781 31.773438 37.890625 31.464844 37.558594 31.214844 C 37.230469 30.96875 36.886719 30.851562 36.535156 30.851562 Z M 36.535156 30.851562 " clip-rule="nonzero"/></clipPath><clipPath id="6d5eb5b9e0"><path d="M 6.984375 33 L 9.84375 33 L 9.84375 37.605469 L 6.984375 37.605469 Z M 6.984375 33 " clip-rule="nonzero"/></clipPath><clipPath id="7b38412198"><path d="M 6.984375 36.480469 C 7.292969 36.847656 7.5625 37.207031 7.890625 37.503906 C 7.945312 37.554688 8.355469 37.371094 8.429688 37.210938 C 8.902344 36.199219 9.394531 35.1875 9.730469 34.128906 C 9.824219 33.828125 9.511719 33.253906 9.214844 33.03125 C 9.054688 32.90625 8.339844 33.160156 8.214844 33.414062 C 7.75 34.34375 7.421875 35.347656 6.984375 36.480469 " clip-rule="nonzero"/></clipPath><clipPath id="e12c4f8c85"><path d="M 29.441406 35.011719 L 36.25 35.011719 L 36.25 38.695312 L 29.441406 38.695312 Z M 29.441406 35.011719 " clip-rule="nonzero"/></clipPath><clipPath id="3d151f7efb"><path d="M 36.117188 35.085938 C 35.792969 35.113281 35.667969 35.09375 35.570312 35.136719 L 30.492188 37.300781 C 30 37.523438 29.46875 37.835938 29.523438 38.550781 L 29.75 38.671875 C 31.765625 37.773438 33.726562 36.90625 35.664062 35.984375 C 35.867188 35.886719 35.925781 35.476562 36.113281 35.085938 " clip-rule="nonzero"/></clipPath><clipPath id="861f8e2d2b"><path d="M 23.726562 29.828125 L 26.992188 29.828125 L 26.992188 32.421875 L 23.726562 32.421875 Z M 23.726562 29.828125 " clip-rule="nonzero"/></clipPath><clipPath id="6ca0de87ac"><path d="M 25.554688 32.390625 C 26.441406 32.390625 26.945312 32 26.933594 31.324219 C 26.921875 30.609375 26.140625 29.96875 25.269531 29.957031 C 24.46875 29.949219 23.835938 30.488281 23.847656 31.167969 C 23.863281 31.941406 24.496094 32.394531 25.558594 32.390625 " clip-rule="nonzero"/></clipPath><clipPath id="20b78f6bcb"><path d="M 15.421875 27.648438 L 18.691406 27.648438 L 18.691406 30.375 L 15.421875 30.375 Z M 15.421875 27.648438 " clip-rule="nonzero"/></clipPath><clipPath id="27d8e0fcd9"><path d="M 17.121094 30.238281 C 18.011719 30.246094 18.578125 29.808594 18.578125 29.105469 C 18.582031 28.371094 17.832031 27.734375 16.945312 27.71875 C 16.089844 27.707031 15.542969 28.179688 15.554688 28.925781 C 15.566406 29.679688 16.21875 30.226562 17.121094 30.238281 " clip-rule="nonzero"/></clipPath><clipPath id="d1c8778794"><path d="M 30.667969 22.734375 L 33.664062 22.734375 L 33.664062 25.191406 L 30.667969 25.191406 Z M 30.667969 22.734375 " clip-rule="nonzero"/></clipPath><clipPath id="f049c67e8d"><path d="M 31.996094 22.84375 C 31.222656 22.832031 30.707031 23.273438 30.722656 23.9375 C 30.734375 24.597656 31.402344 25.167969 32.171875 25.148438 C 32.839844 25.132812 33.382812 24.886719 33.460938 24.136719 C 33.53125 23.46875 32.808594 22.859375 31.996094 22.84375 " clip-rule="nonzero"/></clipPath><clipPath id="88df68d1c7"><path d="M 21.546875 16.597656 L 24.40625 16.597656 L 24.40625 19 L 21.546875 19 Z M 21.546875 16.597656 " clip-rule="nonzero"/></clipPath><clipPath id="3a6aeda4bc"><path d="M 22.769531 16.710938 C 22.179688 16.753906 21.664062 17.003906 21.625 17.757812 C 21.589844 18.394531 22.203125 18.90625 22.976562 18.914062 C 23.640625 18.925781 24.195312 18.742188 24.257812 17.960938 C 24.304688 17.328125 23.609375 16.730469 22.769531 16.710938 " clip-rule="nonzero"/></clipPath><clipPath id="45c8fbf097"><path d="M 25.222656 15.644531 L 27.945312 15.644531 L 27.945312 17.960938 L 25.222656 17.960938 Z M 25.222656 15.644531 " clip-rule="nonzero"/></clipPath><clipPath id="ea80bb53a2"><path d="M 26.507812 15.738281 C 26.496094 15.738281 26.480469 15.738281 26.46875 15.738281 C 25.820312 15.769531 25.3125 16.085938 25.339844 16.773438 C 25.371094 17.523438 25.933594 17.832031 26.515625 17.90625 C 26.535156 17.90625 26.550781 17.90625 26.566406 17.90625 C 27.332031 17.90625 27.828125 17.519531 27.863281 16.980469 C 27.902344 16.371094 27.242188 15.746094 26.53125 15.738281 Z M 26.507812 15.738281 " clip-rule="nonzero"/></clipPath><clipPath id="79a8acd692"><path d="M 28.082031 40.46875 L 32.4375 40.46875 L 32.4375 43.199219 L 28.082031 43.199219 Z M 28.082031 40.46875 " clip-rule="nonzero"/></clipPath><clipPath id="bff225e746"><path d="M 28.203125 43.195312 C 29.824219 42.726562 31.253906 41.941406 32.3125 40.582031 C 30.652344 40.988281 29.191406 41.707031 28.203125 43.195312 " clip-rule="nonzero"/></clipPath><clipPath id="a417d72be1"><path d="M 11 42.515625 L 12.972656 42.515625 L 12.972656 45.105469 L 11 45.105469 Z M 11 42.515625 " clip-rule="nonzero"/></clipPath><clipPath id="b422a2bdd5"><path d="M 12.566406 44.65625 C 12.851562 44.355469 12.875 43.890625 12.617188 43.558594 C 12.328125 43.199219 12.089844 42.894531 11.785156 42.796875 C 11.15625 42.597656 11.019531 43.246094 11.03125 43.75 C 11.050781 44.386719 11.226562 45.050781 11.988281 45.054688 C 12.164062 45.054688 12.34375 44.886719 12.566406 44.65625 " clip-rule="nonzero"/></clipPath><clipPath id="1f1eb7d050"><path d="M 7 26.144531 L 8.890625 26.144531 L 8.890625 28.464844 L 7 28.464844 Z M 7 26.144531 " clip-rule="nonzero"/></clipPath><clipPath id="b27d4d82f9"><path d="M 7.566406 26.269531 C 7.207031 26.523438 7.050781 26.976562 7.132812 27.410156 C 7.230469 27.933594 7.441406 28.285156 7.980469 28.328125 C 8.203125 28.34375 8.632812 27.835938 8.679688 27.527344 C 8.78125 26.902344 8.550781 26.253906 7.820312 26.179688 L 7.652344 26.207031 " clip-rule="nonzero"/></clipPath><clipPath id="4486a22e34"><path d="M 25.496094 43 L 27.539062 43 L 27.539062 44.835938 L 25.496094 44.835938 Z M 25.496094 43 " clip-rule="nonzero"/></clipPath><clipPath id="6c94557cd1"><path d="M 27.433594 43.074219 C 26.371094 42.894531 25.648438 43.5625 25.625 44.710938 C 26.335938 44.066406 26.886719 43.570312 27.433594 43.074219 " clip-rule="nonzero"/></clipPath><clipPath id="100f998127"><path d="M 22.910156 43.605469 L 24.816406 43.605469 L 24.816406 45.515625 L 22.910156 45.515625 Z M 22.910156 43.605469 " clip-rule="nonzero"/></clipPath><clipPath id="52b0442d86"><path d="M 22.984375 45.3125 C 24.074219 45.476562 24.792969 44.828125 24.8125 43.691406 C 24.09375 44.328125 23.539062 44.820312 22.984375 45.3125 " clip-rule="nonzero"/></clipPath><clipPath id="17c26c5cd6"><path d="M 19.234375 43.742188 L 21.140625 43.742188 L 21.140625 45.652344 L 19.234375 45.652344 Z M 19.234375 43.742188 " clip-rule="nonzero"/></clipPath><clipPath id="b7f30d3672"><path d="M 21.132812 43.96875 C 20.125 43.757812 19.371094 44.425781 19.277344 45.605469 C 20.015625 44.957031 20.574219 44.460938 21.132812 43.96875 " clip-rule="nonzero"/></clipPath><clipPath id="15fa7cffe3"><path d="M 32.710938 37.46875 L 34.75 37.46875 L 34.75 39.378906 L 32.710938 39.378906 Z M 32.710938 37.46875 " clip-rule="nonzero"/></clipPath><clipPath id="30a7647726"><path d="M 34.6875 38.007812 L 34.304688 37.566406 L 32.8125 38.917969 C 32.925781 39.046875 33.039062 39.179688 33.152344 39.308594 Z M 34.6875 38.007812 " clip-rule="nonzero"/></clipPath></defs><g fill="#00fffc" fill-opacity="1"><g transform="translate(42.8286, 36.570978)"><g><path d="M 3.464844 -3.886719 L 0.191406 -3.886719 L 0.191406 -3.496094 L 1.59375 -3.496094 L 1.59375 0.00390625 L 2.074219 0.00390625 L 2.074219 -3.496094 L 3.464844 -3.496094 Z M 3.464844 -3.886719 "/></g></g></g><g fill="#00fffc" fill-opacity="1"><g transform="translate(50.181441, 36.570978)"><g><path d="M 0.882812 -0.390625 L 0.882812 -1.804688 L 3.097656 -1.804688 L 3.097656 -2.191406 L 0.882812 -2.191406 L 0.882812 -3.496094 L 3.273438 -3.496094 L 3.273438 -3.886719 L 0.398438 -3.886719 L 0.398438 0 L 3.289062 0 L 3.289062 -0.390625 Z M 0.882812 -0.390625 "/></g></g></g><g fill="#00fffc" fill-opacity="1"><g transform="translate(57.528439, 36.570978)"><g><path d="M 2.261719 0.0976562 C 3.507812 0.0976562 4.0625 -0.5625 4.125 -1.550781 L 3.628906 -1.550781 C 3.578125 -0.761719 3.132812 -0.304688 2.25 -0.304688 C 1.28125 -0.304688 0.828125 -0.859375 0.828125 -1.945312 C 0.828125 -3.035156 1.292969 -3.589844 2.261719 -3.589844 C 3.105469 -3.589844 3.535156 -3.195312 3.617188 -2.4375 L 4.109375 -2.4375 C 4.015625 -3.402344 3.472656 -3.992188 2.273438 -3.992188 C 0.933594 -3.992188 0.320312 -3.117188 0.320312 -1.945312 C 0.320312 -0.765625 0.921875 0.0976562 2.261719 0.0976562 Z M 2.261719 0.0976562 "/></g></g></g><g fill="#00fffc" fill-opacity="1"><g transform="translate(65.635276, 36.570978)"><g><path d="M 3.144531 -3.886719 L 3.144531 -2.203125 L 0.882812 -2.203125 L 0.882812 -3.886719 L 0.398438 -3.886719 L 0.398438 0 L 0.882812 0 L 0.882812 -1.8125 L 3.144531 -1.8125 L 3.144531 0 L 3.625 0 L 3.625 -3.886719 Z M 3.144531 -3.886719 "/></g></g></g><g clip-path="url(#7d73fda4b0)"><g clip-path="url(#26895571d0)"><path fill="#00fffc" d="M 4.125 14.824219 L 38.96875 14.824219 L 38.96875 49.746094 L 4.125 49.746094 Z M 4.125 14.824219 " fill-opacity="1" fill-rule="nonzero"/></g></g><g clip-path="url(#38bac1a4e3)"><g clip-path="url(#ca5ebb9ae9)"><path fill="#00fffc" d="M 4.125 14.824219 L 38.96875 14.824219 L 38.96875 49.746094 L 4.125 49.746094 Z M 4.125 14.824219 " fill-opacity="1" fill-rule="nonzero"/></g></g><g clip-path="url(#4177403d80)"><g clip-path="url(#a6c33db0df)"><path fill="#00fffc" d="M 4.125 14.824219 L 38.96875 14.824219 L 38.96875 49.746094 L 4.125 49.746094 Z M 4.125 14.824219 " fill-opacity="1" fill-rule="nonzero"/></g></g><g clip-path="url(#de95019755)"><g clip-path="url(#94d7e5514b)"><path fill="#00fffc" d="M 4.125 14.824219 L 38.96875 14.824219 L 38.96875 49.746094 L 4.125 49.746094 Z M 4.125 14.824219 " fill-opacity="1" fill-rule="nonzero"/></g></g><g clip-path="url(#9d18ea9e6c)"><g clip-path="url(#b1346b23dc)"><path fill="#00fffc" d="M 4.125 14.824219 L 38.96875 14.824219 L 38.96875 49.746094 L 4.125 49.746094 Z M 4.125 14.824219 " fill-opacity="1" fill-rule="nonzero"/></g></g><g clip-path="url(#a2c2fa9228)"><g clip-path="url(#19cd97aba0)"><path fill="#00fffc" d="M 4.125 14.824219 L 38.96875 14.824219 L 38.96875 49.746094 L 4.125 49.746094 Z M 4.125 14.824219 " fill-opacity="1" fill-rule="nonzero"/></g></g><g clip-path="url(#02dc56bcb5)"><g clip-path="url(#05d38c0236)"><path fill="#00fffc" d="M 4.125 14.824219 L 38.96875 14.824219 L 38.96875 49.746094 L 4.125 49.746094 Z M 4.125 14.824219 " fill-opacity="1" fill-rule="nonzero"/></g></g><g clip-path="url(#5c2a49be97)"><g clip-path="url(#a2473c11ec)"><path fill="#ffffff" d="M 4.125 14.824219 L 38.96875 14.824219 L 38.96875 49.746094 L 4.125 49.746094 Z M 4.125 14.824219 " fill-opacity="1" fill-rule="nonzero"/></g></g><g clip-path="url(#6d5eb5b9e0)"><g clip-path="url(#7b38412198)"><path fill="#ffffff" d="M 4.125 14.824219 L 38.96875 14.824219 L 38.96875 49.746094 L 4.125 49.746094 Z M 4.125 14.824219 " fill-opacity="1" fill-rule="nonzero"/></g></g><g clip-path="url(#e12c4f8c85)"><g clip-path="url(#3d151f7efb)"><path fill="#00fffc" d="M 4.125 14.824219 L 38.96875 14.824219 L 38.96875 49.746094 L 4.125 49.746094 Z M 4.125 14.824219 " fill-opacity="1" fill-rule="nonzero"/></g></g><g clip-path="url(#861f8e2d2b)"><g clip-path="url(#6ca0de87ac)"><path fill="#ffffff" d="M 4.125 14.824219 L 38.96875 14.824219 L 38.96875 49.746094 L 4.125 49.746094 Z M 4.125 14.824219 " fill-opacity="1" fill-rule="nonzero"/></g></g><g clip-path="url(#20b78f6bcb)"><g clip-path="url(#27d8e0fcd9)"><path fill="#ffffff" d="M 4.125 14.824219 L 38.96875 14.824219 L 38.96875 49.746094 L 4.125 49.746094 Z M 4.125 14.824219 " fill-opacity="1" fill-rule="nonzero"/></g></g><g clip-path="url(#d1c8778794)"><g clip-path="url(#f049c67e8d)"><path fill="#ffffff" d="M 4.125 14.824219 L 38.96875 14.824219 L 38.96875 49.746094 L 4.125 49.746094 Z M 4.125 14.824219 " fill-opacity="1" fill-rule="nonzero"/></g></g><g clip-path="url(#88df68d1c7)"><g clip-path="url(#3a6aeda4bc)"><path fill="#ffffff" d="M 4.125 14.824219 L 38.96875 14.824219 L 38.96875 49.746094 L 4.125 49.746094 Z M 4.125 14.824219 " fill-opacity="1" fill-rule="nonzero"/></g></g><g clip-path="url(#45c8fbf097)"><g clip-path="url(#ea80bb53a2)"><path fill="#ffffff" d="M 4.125 14.824219 L 38.96875 14.824219 L 38.96875 49.746094 L 4.125 49.746094 Z M 4.125 14.824219 " fill-opacity="1" fill-rule="nonzero"/></g></g><g clip-path="url(#79a8acd692)"><g clip-path="url(#bff225e746)"><path fill="#ffffff" d="M 4.125 14.824219 L 38.96875 14.824219 L 38.96875 49.746094 L 4.125 49.746094 Z M 4.125 14.824219 " fill-opacity="1" fill-rule="nonzero"/></g></g><g clip-path="url(#a417d72be1)"><g clip-path="url(#b422a2bdd5)"><path fill="#ffffff" d="M 4.125 14.824219 L 38.96875 14.824219 L 38.96875 49.746094 L 4.125 49.746094 Z M 4.125 14.824219 " fill-opacity="1" fill-rule="nonzero"/></g></g><g clip-path="url(#1f1eb7d050)"><g clip-path="url(#b27d4d82f9)"><path fill="#ffffff" d="M 4.125 14.824219 L 38.96875 14.824219 L 38.96875 49.746094 L 4.125 49.746094 Z M 4.125 14.824219 " fill-opacity="1" fill-rule="nonzero"/></g></g><g clip-path="url(#4486a22e34)"><g clip-path="url(#6c94557cd1)"><path fill="#00fffc" d="M 4.125 14.824219 L 38.96875 14.824219 L 38.96875 49.746094 L 4.125 49.746094 Z M 4.125 14.824219 " fill-opacity="1" fill-rule="nonzero"/></g></g><g clip-path="url(#100f998127)"><g clip-path="url(#52b0442d86)"><path fill="#00fffc" d="M 4.125 14.824219 L 38.96875 14.824219 L 38.96875 49.746094 L 4.125 49.746094 Z M 4.125 14.824219 " fill-opacity="1" fill-rule="nonzero"/></g></g><g clip-path="url(#17c26c5cd6)"><g clip-path="url(#b7f30d3672)"><path fill="#00fffc" d="M 4.125 14.824219 L 38.96875 14.824219 L 38.96875 49.746094 L 4.125 49.746094 Z M 4.125 14.824219 " fill-opacity="1" fill-rule="nonzero"/></g></g><g clip-path="url(#15fa7cffe3)"><g clip-path="url(#30a7647726)"><path fill="#00fffc" d="M 4.125 14.824219 L 38.96875 14.824219 L 38.96875 49.746094 L 4.125 49.746094 Z M 4.125 14.824219 " fill-opacity="1" fill-rule="nonzero"/></g></g><g fill="#ffffff" fill-opacity="1"><g transform="translate(42.656652, 26.664533)"><g><path d="M 2.066406 0.09375 C 2.902344 0.09375 3.3125 -0.363281 3.472656 -0.894531 L 3.472656 -0.00390625 L 3.882812 -0.00390625 L 3.882812 -1.800781 L 1.792969 -1.800781 L 1.792969 -1.457031 L 3.4375 -1.457031 C 3.335938 -0.777344 2.984375 -0.285156 2.132812 -0.285156 C 1.191406 -0.285156 0.777344 -0.8125 0.777344 -1.828125 C 0.777344 -2.859375 1.207031 -3.367188 2.132812 -3.367188 C 2.941406 -3.367188 3.324219 -3.042969 3.417969 -2.34375 L 3.890625 -2.34375 C 3.785156 -3.253906 3.234375 -3.746094 2.148438 -3.746094 C 0.886719 -3.746094 0.300781 -2.929688 0.300781 -1.828125 C 0.300781 -0.71875 0.859375 0.09375 2.066406 0.09375 Z M 2.066406 0.09375 "/></g></g></g><g fill="#ffffff" fill-opacity="1"><g transform="translate(50.401259, 26.664533)"><g><path d="M 0.828125 -0.367188 L 0.828125 -1.695312 L 2.90625 -1.695312 L 2.90625 -2.058594 L 0.828125 -2.058594 L 0.828125 -3.28125 L 3.070312 -3.28125 L 3.070312 -3.648438 L 0.371094 -3.648438 L 0.371094 0 L 3.089844 0 L 3.089844 -0.367188 Z M 0.828125 -0.367188 "/></g></g></g><g fill="#ffffff" fill-opacity="1"><g transform="translate(57.295712, 26.664533)"><g><path d="M 3.027344 -3.648438 L 3.027344 -0.308594 C 2.957031 -0.472656 2.867188 -0.652344 2.796875 -0.777344 L 1.140625 -3.648438 L 0.371094 -3.648438 L 0.371094 0 L 0.828125 0 L 0.828125 -3.339844 C 0.886719 -3.199219 0.964844 -3.039062 1.058594 -2.863281 L 2.714844 0 L 3.476562 0 L 3.476562 -3.648438 Z M 3.027344 -3.648438 "/></g></g></g><g fill="#ffffff" fill-opacity="1"><g transform="translate(64.612501, 26.664533)"><g><path d="M 0.828125 -0.367188 L 0.828125 -1.695312 L 2.90625 -1.695312 L 2.90625 -2.058594 L 0.828125 -2.058594 L 0.828125 -3.28125 L 3.070312 -3.28125 L 3.070312 -3.648438 L 0.371094 -3.648438 L 0.371094 0 L 3.089844 0 L 3.089844 -0.367188 Z M 0.828125 -0.367188 "/></g></g></g><g fill="#ffffff" fill-opacity="1"><g transform="translate(71.506953, 26.664533)"><g><path d="M 3.078125 -0.964844 C 3.078125 -1.503906 2.832031 -1.667969 2.484375 -1.765625 C 2.890625 -1.859375 3.191406 -2.199219 3.191406 -2.6875 C 3.191406 -3.273438 2.824219 -3.648438 2.074219 -3.648438 L 0.371094 -3.648438 L 0.371094 0 L 0.828125 0 L 0.828125 -1.632812 L 1.855469 -1.632812 C 2.359375 -1.632812 2.636719 -1.421875 2.636719 -0.898438 L 2.636719 -0.566406 C 2.636719 -0.300781 2.664062 -0.121094 2.703125 0 L 3.148438 0 C 3.117188 -0.136719 3.078125 -0.3125 3.078125 -0.582031 Z M 2.019531 -1.972656 L 0.828125 -1.972656 L 0.828125 -3.28125 L 2.023438 -3.28125 C 2.5 -3.28125 2.714844 -3.070312 2.714844 -2.648438 C 2.714844 -2.230469 2.527344 -1.972656 2.019531 -1.972656 Z M 2.019531 -1.972656 "/></g></g></g><g fill="#ffffff" fill-opacity="1"><g transform="translate(78.516585, 26.664533)"><g><path d="M 3.179688 0 L 3.640625 0 L 2.257812 -3.648438 L 1.585938 -3.648438 L 0.203125 0 L 0.65625 0 L 1.015625 -0.933594 L 2.824219 -0.933594 Z M 1.152344 -1.300781 L 1.917969 -3.316406 L 2.6875 -1.300781 Z M 1.152344 -1.300781 "/></g></g></g><g fill="#ffffff" fill-opacity="1"><g transform="translate(85.811432, 26.664533)"><g><path d="M 2.121094 0.09375 C 3.289062 0.09375 3.8125 -0.527344 3.871094 -1.453125 L 3.40625 -1.453125 C 3.355469 -0.714844 2.941406 -0.285156 2.113281 -0.285156 C 1.203125 -0.285156 0.777344 -0.804688 0.777344 -1.828125 C 0.777344 -2.847656 1.210938 -3.367188 2.121094 -3.367188 C 2.914062 -3.367188 3.316406 -3 3.394531 -2.289062 L 3.855469 -2.289062 C 3.769531 -3.191406 3.257812 -3.746094 2.132812 -3.746094 C 0.878906 -3.746094 0.300781 -2.921875 0.300781 -1.828125 C 0.300781 -0.71875 0.867188 0.09375 2.121094 0.09375 Z M 2.121094 0.09375 "/></g></g></g><g fill="#ffffff" fill-opacity="1"><g transform="translate(93.418916, 26.664533)"><g><path d="M 2.363281 -3.28125 L 2.363281 -3.648438 L 0.367188 -3.648438 L 0.367188 -3.28125 L 1.140625 -3.28125 L 1.140625 -0.367188 L 0.367188 -0.367188 L 0.367188 0 L 2.363281 0 L 2.363281 -0.367188 L 1.589844 -0.367188 L 1.589844 -3.28125 Z M 2.363281 -3.28125 "/></g></g></g><g fill="#ffffff" fill-opacity="1"><g transform="translate(99.611305, 26.664533)"><g><path d="M 2.757812 -4.3125 L 2.628906 -4.644531 L 1.476562 -4.136719 L 1.550781 -3.964844 Z M 2.117188 0.09375 C 3.382812 0.09375 3.9375 -0.730469 3.9375 -1.828125 C 3.9375 -2.90625 3.382812 -3.746094 2.117188 -3.746094 C 0.851562 -3.746094 0.300781 -2.914062 0.300781 -1.828125 C 0.300781 -0.722656 0.851562 0.09375 2.117188 0.09375 Z M 0.777344 -1.828125 C 0.777344 -2.851562 1.183594 -3.367188 2.117188 -3.367188 C 3.050781 -3.367188 3.460938 -2.851562 3.460938 -1.828125 C 3.460938 -0.800781 3.050781 -0.285156 2.117188 -0.285156 C 1.183594 -0.285156 0.777344 -0.800781 0.777344 -1.828125 Z M 0.777344 -1.828125 "/></g></g></g><g fill="#ffffff" fill-opacity="1"><g transform="translate(107.312029, 26.664533)"><g><path d="M 3.027344 -3.648438 L 3.027344 -0.308594 C 2.957031 -0.472656 2.867188 -0.652344 2.796875 -0.777344 L 1.140625 -3.648438 L 0.371094 -3.648438 L 0.371094 0 L 0.828125 0 L 0.828125 -3.339844 C 0.886719 -3.199219 0.964844 -3.039062 1.058594 -2.863281 L 2.714844 0 L 3.476562 0 L 3.476562 -3.648438 Z M 3.027344 -3.648438 "/></g></g></g></svg>